<svg xmlns="http://www.w3.org/2000/svg" width="100" height="69.987"><defs><style>.a{fill:#650300}</style></defs><path class="a" d="M21.483 69.987a21.483 21.483 0 1121.484-21.484 21.508 21.508 0 01-21.484 21.484zm0-38.967a17.483 17.483 0 1017.484 17.482A17.5 17.5 0 0021.483 31.02zm57.033 38.967A21.483 21.483 0 11100 48.503a21.508 21.508 0 01-21.484 21.484zm0-38.967A17.483 17.483 0 1096 48.502 17.5 17.5 0 0078.516 31.02z"/><path class="a" d="M3.968 41.49a2 2 0 01-1.894-2.644l10.964-32.2c1.24-4.928 7.281-7.728 13.519-6.25a2 2 0 11-.922 3.892c-4.068-.964-8.066.584-8.729 3.379l-.053.184L5.861 40.135a2 2 0 01-1.893 1.355zm91.916 0a2 2 0 01-1.894-1.355L82.943 7.672a4.552 4.552 0 00-2.812-3 9.473 9.473 0 00-5.917-.382 2 2 0 01-.922-3.892 13.482 13.482 0 018.439.609 8.458 8.458 0 015.079 5.642l10.966 32.195a2 2 0 01-1.892 2.643zm-36.943 8.975a1.979 1.979 0 01-.906-.219 20.242 20.242 0 00-8.243-1.651 17.2 17.2 0 00-7.738 1.6 2 2 0 11-1.994-3.467 20.792 20.792 0 019.732-2.136 23.826 23.826 0 0110.06 2.088 2 2 0 01-.911 3.781z"/></svg>