<svg xmlns="http://www.w3.org/2000/svg" width="34" height="34"><path d="M16 25a9.356 9.356 0 009-9c0-4.71-4.29-8-9-8a7.655 7.655 0 00-8 8c0 4.709 3.29 9 8 9zm0-16a6.853 6.853 0 017 7 6.853 6.853 0 01-7 7 6.853 6.853 0 01-7-7 6.853 6.853 0 017-7zm0-8h1v5h-1zm0 27h1v5h-1zm12-12h5v1h-5zM1 16h5v1H1zm22.703-8.092l3.252-3.252.93.93-3.253 3.251zM4.653 26.955l3.252-3.252.93.93-3.253 3.251zm19.049-2.324l.93-.93 3.251 3.253-.929.929zM4.654 5.583l.93-.93 3.251 3.253-.929.929z" fill="#fff" stroke="#fff" stroke-width="2"/></svg>