<svg xmlns="http://www.w3.org/2000/svg" width="100" height="100"><defs><style>.a{fill:#650300}</style></defs><path class="a" d="M50.006 100a50 50 0 1150-50 50.059 50.059 0 01-50.004 50zM50 3.989a46.011 46.011 0 100 92.022 46.011 46.011 0 00-.006-92.022z"/><path class="a" d="M50.477 78.447c-8.949 0-16.23-6.819-16.23-15.2a2 2 0 014 0c0 6.185 5.486 11.217 12.23 11.217s12.229-5.032 12.229-11.217-5.485-11.216-12.229-11.216c-8.949 0-16.23-6.818-16.23-15.2s7.281-15.2 16.23-15.2a16.656 16.656 0 0112.434 5.43 1.985 1.985 0 01-.161 2.811 2.007 2.007 0 01-2.823-.16 12.648 12.648 0 00-9.449-4.1c-6.744 0-12.23 5.031-12.23 11.216s5.486 11.217 12.23 11.217c8.948 0 16.229 6.819 16.229 15.2s-7.282 15.202-16.23 15.202z"/><path class="a" d="M50.031 85.707a2 2 0 01-2-1.993V16.367a2 2 0 014 0v67.347a2 2 0 01-2 1.993z"/></svg>