<svg xmlns="http://www.w3.org/2000/svg" width="100" height="100"><defs><style>.a{fill:#650300}</style></defs><path class="a" d="M50.006 100a50 50 0 1150-50 50.06 50.06 0 01-50.008 50zm-.008-96.01a46.01 46.01 0 100 92.021 46.01 46.01 0 000-92.021z"/><path class="a" d="M50.005 85.369a35.37 35.37 0 1135.37-35.37 35.415 35.415 0 01-35.377 35.37zm0-66.755a31.385 31.385 0 100 62.769 31.385 31.385 0 000-62.769z"/><path class="a" d="M50 56.233a6.232 6.232 0 114.406-1.822A6.2 6.2 0 0150 56.233zm0-8.468a2.218 2.218 0 00-1.58.655 2.241 2.241 0 000 3.164 2.293 2.293 0 003.157 0 2.235 2.235 0 00-1.579-3.816z"/><path class="a" d="M52.964 49.037a2 2 0 01-1.414-3.414l13.8-13.8a2 2 0 012.828 2.828l-13.8 13.8a1.99 1.99 0 01-1.414.586zm-5.954-.028a1.992 1.992 0 01-1.416-.586L35.346 38.172a2 2 0 012.828-2.829l10.25 10.252a2 2 0 01-1.414 3.414z"/></svg>