<svg xmlns="http://www.w3.org/2000/svg" width="100" height="93.987"><path d="M49.998 93.987a1.871 1.871 0 01-1.235-.463c-1.528-1.331-37.493-32.86-46.643-57.31a25.941 25.941 0 1147.916-19.882A25.941 25.941 0 01100 26.119c0 .516-.02 1.028-.05 1.537-.08 23.18-46.727 64.135-48.716 65.868a1.88 1.88 0 01-1.236.463zM25.938 3.761a22.183 22.183 0 00-20.35 31c.014.03.025.061.038.092 7.869 21.1 37.892 48.9 44.371 54.735 7.472-6.721 46.19-42.495 46.19-61.993v-.117c.027-.45.046-.9.046-1.362a22.179 22.179 0 00-44.358 0c0 .111 0 .219.008.329l.009.282a1.878 1.878 0 01-.537 1.356 1.96 1.96 0 01-2.712-.006 1.9 1.9 0 01-.548-1.365l.006-.173c.007-.2.013-.4.013-.6A22.2 22.2 0 0025.938 3.761z" fill="#650300"/></svg>