<svg xmlns="http://www.w3.org/2000/svg" width="48" height="48"><defs><clipPath id="a"><path transform="translate(.008)" stroke="#fff" fill="#fff" d="M0 0h48v48H0z"/></clipPath><style>.c{fill:#fff}</style></defs><g transform="translate(-.008)" clip-path="url(#a)"><path class="c" d="M35.512 44.307H12.5a8.78 8.78 0 01-8.8-8.795v-23.02a8.79 8.79 0 018.8-8.8h23.012a8.792 8.792 0 018.8 8.8v23.02a8.782 8.782 0 01-8.8 8.795zM23.939 10.192c-8.155 0-14.79 5.392-14.79 12.017a10.79 10.79 0 003.509 7.788 15.84 15.84 0 008.842 4.06c.741.157 1.185.41 1.285.748a3.13 3.13 0 01.039 1.345v.028c-.063.393-.173 1.073-.2 1.23l-.007.046a1.072 1.072 0 00.082.817.506.506 0 00.4.151 2.239 2.239 0 00.808-.2c1.713-.726 8.607-5.093 11.612-8.6a10.649 10.649 0 003.217-7.411c-.007-6.619-6.642-12.019-14.797-12.019z"/><path class="c" d="M20.971 19.104h-1.034a.294.294 0 00-.3.267v6.333a.272.272 0 00.3.267h1.034a.294.294 0 00.3-.267v-6.333a.294.294 0 00-.3-.267m7.035 0h-1a.294.294 0 00-.3.267v3.768l-2.9-3.934a.033.033 0 00-.033-.033l-.033-.033h-1.069a.294.294 0 00-.3.267v6.335a.272.272 0 00.3.267h1.034a.294.294 0 00.3-.267v-3.77l2.9 3.934c.033.033.033.067.067.067h1.034a.294.294 0 00.3-.267v-6.334a.294.294 0 00-.3-.267m-9.504 5.301h-2.766V19.37a.3.3 0 00-.3-.3h-1.034a.3.3 0 00-.3.3v6.335a.474.474 0 00.067.2.474.474 0 00.2.067h4.068a.272.272 0 00.267-.3v-1.034c.1-.1-.033-.233-.2-.233m15.135-3.734a.272.272 0 00.267-.3v-1.034a.294.294 0 00-.267-.3h-4.067a.474.474 0 00-.2.067.474.474 0 00-.067.2v6.333a.474.474 0 00.067.2.474.474 0 00.2.067h4.068a.272.272 0 00.267-.3v-1.032a.294.294 0 00-.267-.3h-2.768v-.935h2.767a.272.272 0 00.267-.3v-1.033a.294.294 0 00-.267-.3h-2.767v-1.033z"/></g></svg>