<svg xmlns="http://www.w3.org/2000/svg" width="48" height="48"><defs><clipPath id="a"><path transform="translate(.268)" stroke="#fff" fill="#fff" d="M0 0h48v48H0z"/></clipPath><clipPath id="b"><path class="b" d="M0 0h39.385v39.385H0z"/></clipPath><style>.b{fill:#fff}</style></defs><g transform="translate(-.268)" clip-path="url(#a)"><g transform="translate(3.961 3.692)" clip-path="url(#b)"><path class="b" d="M19.983 4.177c5.259 0 5.876.023 7.955.117a10.742 10.742 0 013.657.68 6.109 6.109 0 012.266 1.469 6.014 6.014 0 011.468 2.266 10.944 10.944 0 01.68 3.657c.094 2.079.117 2.7.117 7.955s-.023 5.876-.117 7.955a10.742 10.742 0 01-.68 3.657 6.109 6.109 0 01-1.469 2.266 6.014 6.014 0 01-2.261 1.468 10.943 10.943 0 01-3.657.68c-2.079.094-2.7.117-7.955.117s-5.876-.023-7.955-.117a10.742 10.742 0 01-3.657-.68 6.109 6.109 0 01-2.266-1.469 6.014 6.014 0 01-1.473-2.269 10.944 10.944 0 01-.68-3.657c-.094-2.079-.117-2.7-.117-7.955s.023-5.876.117-7.955a10.742 10.742 0 01.68-3.657 6.109 6.109 0 011.469-2.262 6.014 6.014 0 012.266-1.469 10.944 10.944 0 013.657-.68c2.079-.1 2.7-.117 7.955-.117m0-3.548c-5.345 0-6.017.023-8.119.117a14.428 14.428 0 00-4.774.914 9.6 9.6 0 00-3.486 2.274A9.764 9.764 0 001.33 7.419a14.437 14.437 0 00-.914 4.782c-.094 2.094-.117 2.766-.117 8.111s.023 6.017.117 8.119a14.523 14.523 0 00.914 4.782 9.6 9.6 0 002.274 3.486 9.764 9.764 0 003.485 2.274 14.437 14.437 0 004.782.914c2.1.094 2.766.117 8.119.117s6.017-.023 8.119-.117a14.523 14.523 0 004.782-.914 9.6 9.6 0 003.485-2.274 9.764 9.764 0 002.274-3.485 14.438 14.438 0 00.914-4.782c.094-2.1.117-2.766.117-8.119s-.023-6.017-.117-8.119a14.523 14.523 0 00-.914-4.782 9.594 9.594 0 00-2.274-3.483 9.764 9.764 0 00-3.485-2.274 14.438 14.438 0 00-4.782-.914c-2.11-.089-2.782-.112-8.126-.112z"/><path class="b" d="M19.982 10.201a10.111 10.111 0 1010.111 10.111 10.113 10.113 0 00-10.111-10.111zm0 16.675a6.564 6.564 0 116.564-6.564 6.563 6.563 0 01-6.564 6.564z"/><circle class="b" cx="2.36" cy="2.36" r="2.36" transform="translate(28.132 7.443)"/></g></g></svg>