<svg xmlns="http://www.w3.org/2000/svg" width="32" height="25.155"><path d="M31.822 7.467l.044-.044c0-.044.044-.044.044-.089a.044.044 0 01.044-.044A.155.155 0 0132 7.2v-.444c0-.044 0-.089-.044-.089 0-.044 0-.044-.044-.044 0-.044-.044-.044-.044-.089l-.044-.044a.044.044 0 00-.044-.044L26.58.313a.945.945 0 00-.667-.311H6.089a.945.945 0 00-.667.311l-5.2 6a.044.044 0 01-.044.044l-.044.044c0 .044-.044.044-.044.089a.044.044 0 01-.044.044.155.155 0 01-.046.088v.444c0 .044 0 .089.044.089 0 .044 0 .044.044.044 0 .044.044.044.044.089l.044.044a.044.044 0 00.044.044l15.113 17.513.089.089.044.044h.044a.155.155 0 00.089.044.044.044 0 01.044.044c.044 0 .044 0 .089.044h.533c.044 0 .044 0 .089-.044a.044.044 0 00.044-.044c.044 0 .044-.044.089-.044h.044l.044-.044.089-.089L31.778 7.378c0 .089.044.089.044.089zm-23.867.311l4.978 11.733L2.844 7.778zm8.933 0h5.244l-5.243 12.311zm-1.777 12.311L9.867 7.778h5.244zm8.933-12.311h5.111L19.067 19.556zM29.156 6h-5.112l-1.822-4.222h3.289zm-7.022 0h-5.245V1.778h3.422zm-7.022-4.222V6H9.867l1.822-4.222zm-8.622 0h3.289L7.956 6H2.844z" fill="#fff"/></svg>